HIERARCHY
ROOT Hips
{
  OFFSET 0.000000 95.000000 0.000000
  CHANNELS 6 Xposition Yposition Zposition Zrotation Xrotation Yrotation
  JOINT Spine
  {
    OFFSET 0.000000 10.000000 0.000000
    CHANNELS 3 Zrotation Xrotation Yrotation
    JOINT Spine1
    {
      OFFSET 0.000000 12.000000 0.000000
      CHANNELS 3 Zrotation Xrotation Yrotation
      JOINT Spine2
      {
        OFFSET 0.000000 12.000000 0.000000
        CHANNELS 3 Zrotation Xrotation Yrotation
        JOINT Neck
        {
          OFFSET 0.000000 10.000000 0.000000
          CHANNELS 3 Zrotation Xrotation Yrotation
          JOINT Head
          {
            OFFSET 0.000000 8.000000 0.000000
            CHANNELS 3 Zrotation Xrotation Yrotation
            End Site
            {
              OFFSET 0.000000 10.000000 0.000000
            }
          }
        }
        JOINT LeftShoulder
        {
          OFFSET 6.000000 8.000000 0.000000
          CHANNELS 3 Zrotation Xrotation Yrotation
          JOINT LeftArm
          {
            OFFSET 12.000000 0.000000 0.000000
            CHANNELS 3 Zrotation Xrotation Yrotation
            JOINT LeftForeArm
            {
              OFFSET 24.000000 0.000000 0.000000
              CHANNELS 3 Zrotation Xrotation Yrotation
              JOINT LeftHand
              {
                OFFSET 22.000000 0.000000 0.000000
                CHANNELS 3 Zrotation Xrotation Yrotation
                JOINT LeftHandThumb1
                {
                  OFFSET 1.800000 -1.400000 0.500000
                  CHANNELS 3 Zrotation Xrotation Yrotation
                  JOINT LeftHandThumb2
                  {
                    OFFSET 2.400000 0.000000 0.000000
                    CHANNELS 3 Zrotation Xrotation Yrotation
                    JOINT LeftHandThumb3
                    {
                      OFFSET 1.900000 0.000000 0.000000
                      CHANNELS 3 Zrotation Xrotation Yrotation
                      End Site
                      {
                        OFFSET 1.600000 0.000000 0.000000
                      }
                    }
                  }
                }
                JOINT LeftHandIndex1
                {
                  OFFSET 6.600000 1.200000 0.300000
                  CHANNELS 3 Zrotation Xrotation Yrotation
                  JOINT LeftHandIndex2
                  {
                    OFFSET 2.000000 0.000000 0.000000
                    CHANNELS 3 Zrotation Xrotation Yrotation
                    JOINT LeftHandIndex3
                    {
                      OFFSET 1.200000 0.000000 0.000000
                      CHANNELS 3 Zrotation Xrotation Yrotation
                      End Site
                      {
                        OFFSET 1.000000 0.000000 0.000000
                      }
                    }
                  }
                }
                JOINT LeftHandMiddle1
                {
                  OFFSET 7.200000 0.000000 0.300000
                  CHANNELS 3 Zrotation Xrotation Yrotation
                  JOINT LeftHandMiddle2
                  {
                    OFFSET 3.000000 0.000000 0.000000
                    CHANNELS 3 Zrotation Xrotation Yrotation
                    JOINT LeftHandMiddle3
                    {
                      OFFSET 2.000000 0.000000 0.000000
                      CHANNELS 3 Zrotation Xrotation Yrotation
                      End Site
                      {
                        OFFSET 1.600000 0.000000 0.000000
                      }
                    }
                  }
                }
                JOINT LeftHandRing1
                {
                  OFFSET 7.100000 -1.000000 0.400000
                  CHANNELS 3 Zrotation Xrotation Yrotation
                  JOINT LeftHandRing2
                  {
                    OFFSET 2.600000 0.000000 0.000000
                    CHANNELS 3 Zrotation Xrotation Yrotation
                    JOINT LeftHandRing3
                    {
                      OFFSET 1.600000 0.000000 0.000000
                      CHANNELS 3 Zrotation Xrotation Yrotation
                      End Site
                      {
                        OFFSET 1.300000 0.000000 0.000000
                      }
                    }
                  }
                }
                JOINT LeftHandPinky1
                {
                  OFFSET 6.500000 -2.000000 0.500000
                  CHANNELS 3 Zrotation Xrotation Yrotation
                  JOINT LeftHandPinky2
                  {
                    OFFSET 1.900000 0.000000 0.000000
                    CHANNELS 3 Zrotation Xrotation Yrotation
                    JOINT LeftHandPinky3
                    {
                      OFFSET 1.400000 0.000000 0.000000
                      CHANNELS 3 Zrotation Xrotation Yrotation
                      End Site
                      {
                        OFFSET 1.300000 0.000000 0.000000
                      }
                    }
                  }
                }
              }
            }
          }
        }
        JOINT RightShoulder
        {
          OFFSET -6.000000 8.000000 0.000000
          CHANNELS 3 Zrotation Xrotation Yrotation
          JOINT RightArm
          {
            OFFSET -12.000000 0.000000 0.000000
            CHANNELS 3 Zrotation Xrotation Yrotation
            JOINT RightForeArm
            {
              OFFSET -24.000000 0.000000 0.000000
              CHANNELS 3 Zrotation Xrotation Yrotation
              JOINT RightHand
              {
                OFFSET -22.000000 0.000000 0.000000
                CHANNELS 3 Zrotation Xrotation Yrotation
                JOINT RightHandThumb1
                {
                  OFFSET -1.800000 -1.400000 0.500000
                  CHANNELS 3 Zrotation Xrotation Yrotation
                  JOINT RightHandThumb2
                  {
                    OFFSET -2.400000 0.000000 0.000000
                    CHANNELS 3 Zrotation Xrotation Yrotation
                    JOINT RightHandThumb3
                    {
                      OFFSET -1.900000 0.000000 0.000000
                      CHANNELS 3 Zrotation Xrotation Yrotation
                      End Site
                      {
                        OFFSET -1.600000 0.000000 0.000000
                      }
                    }
                  }
                }
                JOINT RightHandIndex1
                {
                  OFFSET -6.600000 1.200000 0.300000
                  CHANNELS 3 Zrotation Xrotation Yrotation
                  JOINT RightHandIndex2
                  {
                    OFFSET -2.000000 0.000000 0.000000
                    CHANNELS 3 Zrotation Xrotation Yrotation
                    JOINT RightHandIndex3
                    {
                      OFFSET -1.200000 0.000000 0.000000
                      CHANNELS 3 Zrotation Xrotation Yrotation
                      End Site
                      {
                        OFFSET -1.000000 0.000000 0.000000
                      }
                    }
                  }
                }
                JOINT RightHandMiddle1
                {
                  OFFSET -7.200000 0.000000 0.300000
                  CHANNELS 3 Zrotation Xrotation Yrotation
                  JOINT RightHandMiddle2
                  {
                    OFFSET -3.000000 0.000000 0.000000
                    CHANNELS 3 Zrotation Xrotation Yrotation
                    JOINT RightHandMiddle3
                    {
                      OFFSET -2.000000 0.000000 0.000000
                      CHANNELS 3 Zrotation Xrotation Yrotation
                      End Site
                      {
                        OFFSET -1.600000 0.000000 0.000000
                      }
                    }
                  }
                }
                JOINT RightHandRing1
                {
                  OFFSET -7.100000 -1.000000 0.400000
                  CHANNELS 3 Zrotation Xrotation Yrotation
                  JOINT RightHandRing2
                  {
                    OFFSET -2.600000 0.000000 0.000000
                    CHANNELS 3 Zrotation Xrotation Yrotation
                    JOINT RightHandRing3
                    {
                      OFFSET -1.600000 0.000000 0.000000
                      CHANNELS 3 Zrotation Xrotation Yrotation
                      End Site
                      {
                        OFFSET -1.300000 0.000000 0.000000
                      }
                    }
                  }
                }
                JOINT RightHandPinky1
                {
                  OFFSET -6.500000 -2.000000 0.500000
                  CHANNELS 3 Zrotation Xrotation Yrotation
                  JOINT RightHandPinky2
                  {
                    OFFSET -1.900000 0.000000 0.000000
                    CHANNELS 3 Zrotation Xrotation Yrotation
                    JOINT RightHandPinky3
                    {
                      OFFSET -1.400000 0.000000 0.000000
                      CHANNELS 3 Zrotation Xrotation Yrotation
                      End Site
                      {
                        OFFSET -1.300000 0.000000 0.000000
                      }
                    }
                  }
                }
              }
            }
          }
        }
      }
    }
  }
  JOINT LeftUpLeg
  {
    OFFSET 10.000000 -5.000000 0.000000
    CHANNELS 3 Zrotation Xrotation Yrotation
    JOINT LeftLeg
    {
      OFFSET 0.000000 -42.000000 0.000000
      CHANNELS 3 Zrotation Xrotation Yrotation
      JOINT LeftFoot
      {
        OFFSET 0.000000 -42.000000 4.000000
        CHANNELS 3 Zrotation Xrotation Yrotation
        End Site
        {
          OFFSET 0.000000 0.000000 12.000000
        }
      }
    }
  }
  JOINT RightUpLeg
  {
    OFFSET -10.000000 -5.000000 0.000000
    CHANNELS 3 Zrotation Xrotation Yrotation
    JOINT RightLeg
    {
      OFFSET 0.000000 -42.000000 0.000000
      CHANNELS 3 Zrotation Xrotation Yrotation
      JOINT RightFoot
      {
        OFFSET 0.000000 -42.000000 4.000000
        CHANNELS 3 Zrotation Xrotation Yrotation
        End Site
        {
          OFFSET 0.000000 0.000000 12.000000
        }
      }
    }
  }
}
MOTION
Frames: 7
Frame Time: 0.033333
0.0000 95.0000 0.0000 0.0000 0.0000 0.0000 0.0000 0.0000 0.0000 0.0000 0.0000 0.0000 0.0000 0.0000 0.0000 0.0000 0.0000 0.0000 0.0000 0.0000 0.0000 0.0000 0.0000 0.0000 -75.7834 -1.1574 -1.4871 -12.6808 -7.6532 12.0616 14.1873 -44.2097 -28.6293 50.8956 -27.4671 -81.7830 49.5359 0.0000 0.0000 9.0623 0.0000 0.0000 12.0371 33.6515 -95.5566 34.4021 0.0000 0.0000 14.3600 0.0000 0.0000 26.3056 31.7064 -105.8709 31.0754 0.0000 0.0000 9.6989 0.0000 0.0000 30.3339 20.6187 -119.1052 24.3029 0.0000 0.0000 9.8236 0.0000 0.0000 41.8744 8.0337 -114.4273 32.1535 0.0000 0.0000 6.6005 0.0000 0.0000 0.0000 0.0000 0.0000 85.0694 -4.8860 5.3251 -0.9241 7.1330 7.4904 14.7576 34.2986 135.2433 -66.6571 -14.3223 9.7005 2.4967 0.0000 0.0000 5.8192 0.0000 0.0000 -12.9141 3.3334 13.0707 7.6280 0.0000 0.0000 1.7029 0.0000 0.0000 -16.6169 1.4117 14.4161 10.8654 0.0000 0.0000 5.1600 0.0000 0.0000 -0.7764 -2.0440 14.9628 19.4491 0.0000 0.0000 10.0610 0.0000 0.0000 -3.9733 -4.2113 14.5501 16.3137 0.0000 0.0000 11.5331 0.0000 0.0000 0.0000 0.0000 0.0000 0.0000 0.0000 0.0000 0.0000 0.0000 0.0000 0.0000 0.0000 0.0000 0.0000 0.0000 0.0000 0.0000 0.0000 0.0000
0.0000 95.0000 0.0000 0.0000 0.0000 0.0000 0.0000 0.0000 0.0000 0.0000 0.0000 0.0000 0.0000 0.0000 0.0000 0.0000 0.0000 0.0000 0.0000 0.0000 0.0000 0.0000 0.0000 0.0000 -75.8947 -0.9184 -1.1778 -12.5116 -7.7180 12.1817 13.8508 -43.9215 -28.7681 50.8956 -27.4671 -81.7830 49.5359 0.0000 0.0000 9.0623 0.0000 0.0000 12.0371 33.6515 -95.5566 34.4021 0.0000 0.0000 14.3600 0.0000 0.0000 26.3056 31.7064 -105.8709 31.0754 0.0000 0.0000 9.6989 0.0000 0.0000 30.3339 20.6187 -119.1052 24.3029 0.0000 0.0000 9.8236 0.0000 0.0000 41.8744 8.0337 -114.4273 32.1535 0.0000 0.0000 6.6005 0.0000 0.0000 0.0000 0.0000 0.0000 85.1363 -5.1211 5.5747 -0.8091 7.1245 7.4898 14.7569 34.5827 134.9723 -66.6571 -14.3223 9.7005 2.4967 0.0000 0.0000 5.8192 0.0000 0.0000 -12.9141 3.3334 13.0707 7.6280 0.0000 0.0000 1.7029 0.0000 0.0000 -16.6169 1.4117 14.4161 10.8654 0.0000 0.0000 5.1600 0.0000 0.0000 -0.7764 -2.0440 14.9628 19.4491 0.0000 0.0000 10.0610 0.0000 0.0000 -3.9733 -4.2113 14.5501 16.3137 0.0000 0.0000 11.5331 0.0000 0.0000 0.0000 0.0000 0.0000 0.0000 0.0000 0.0000 0.0000 0.0000 0.0000 0.0000 0.0000 0.0000 0.0000 0.0000 0.0000 0.0000 0.0000 0.0000
0.0000 95.0000 0.0000 0.0000 0.0000 0.0000 0.0000 0.0000 0.0000 0.0000 0.0000 0.0000 0.0000 0.0000 0.0000 0.0000 0.0000 0.0000 0.0000 0.0000 0.0000 0.0000 0.0000 0.0000 -75.9095 -0.7402 -0.9490 -12.4369 -7.6270 12.0719 13.7286 -43.8489 -28.7871 50.8956 -27.4671 -81.7830 49.5359 0.0000 0.0000 9.0623 0.0000 0.0000 12.0371 33.6515 -95.5566 34.4021 0.0000 0.0000 14.3600 0.0000 0.0000 26.3056 31.7064 -105.8709 31.0754 0.0000 0.0000 9.6989 0.0000 0.0000 30.3339 20.6187 -119.1052 24.3029 0.0000 0.0000 9.8236 0.0000 0.0000 41.8744 8.0337 -114.4273 32.1535 0.0000 0.0000 6.6005 0.0000 0.0000 0.0000 0.0000 0.0000 85.3124 -5.4160 5.8775 -0.8891 6.9741 7.2798 14.7975 34.7506 134.8568 -66.6571 -14.3223 9.7005 2.4967 0.0000 0.0000 5.8192 0.0000 0.0000 -12.9141 3.3334 13.0707 7.6280 0.0000 0.0000 1.7029 0.0000 0.0000 -16.6169 1.4117 14.4161 10.8654 0.0000 0.0000 5.1600 0.0000 0.0000 -0.7764 -2.0440 14.9628 19.4491 0.0000 0.0000 10.0610 0.0000 0.0000 -3.9733 -4.2113 14.5501 16.3137 0.0000 0.0000 11.5331 0.0000 0.0000 0.0000 0.0000 0.0000 0.0000 0.0000 0.0000 0.0000 0.0000 0.0000 0.0000 0.0000 0.0000 0.0000 0.0000 0.0000 0.0000 0.0000 0.0000
0.0000 95.0000 0.0000 0.0000 0.0000 0.0000 0.0000 0.0000 0.0000 0.0000 0.0000 0.0000 0.0000 0.0000 0.0000 0.0000 0.0000 0.0000 0.0000 0.0000 0.0000 0.0000 0.0000 0.0000 -75.9653 -0.8695 -1.1136 -12.2624 -7.6339 11.9925 13.7112 -44.0595 -28.5699 50.8956 -27.4671 -81.7830 49.5359 0.0000 0.0000 9.0623 0.0000 0.0000 12.0371 33.6515 -95.5566 34.4021 0.0000 0.0000 14.3600 0.0000 0.0000 26.3056 31.7064 -105.8709 31.0754 0.0000 0.0000 9.6989 0.0000 0.0000 30.3339 20.6187 -119.1052 24.3029 0.0000 0.0000 9.8236 0.0000 0.0000 41.8744 8.0337 -114.4273 32.1535 0.0000 0.0000 6.6005 0.0000 0.0000 0.0000 0.0000 0.0000 85.2429 -5.4427 5.9136 -0.8963 6.9632 7.2744 14.7103 34.7218 134.7901 -66.6571 -14.3223 9.7005 2.4967 0.0000 0.0000 5.8192 0.0000 0.0000 -12.9141 3.3334 13.0707 7.6280 0.0000 0.0000 1.7029 0.0000 0.0000 -16.6169 1.4117 14.4161 10.8654 0.0000 0.0000 5.1600 0.0000 0.0000 -0.7764 -2.0440 14.9628 19.4491 0.0000 0.0000 10.0610 0.0000 0.0000 -3.9733 -4.2113 14.5501 16.3137 0.0000 0.0000 11.5331 0.0000 0.0000 0.0000 0.0000 0.0000 0.0000 0.0000 0.0000 0.0000 0.0000 0.0000 0.0000 0.0000 0.0000 0.0000 0.0000 0.0000 0.0000 0.0000 0.0000
0.0000 95.0000 0.0000 0.0000 0.0000 0.0000 0.0000 0.0000 0.0000 0.0000 0.0000 0.0000 0.0000 0.0000 0.0000 0.0000 0.0000 0.0000 0.0000 0.0000 0.0000 0.0000 0.0000 0.0000 -76.1657 -0.9867 -1.2591 -11.9406 -7.7911 12.0941 13.5373 -44.1280 -28.4252 50.8956 -27.4671 -81.7830 49.5359 0.0000 0.0000 9.0623 0.0000 0.0000 12.0371 33.6515 -95.5566 34.4021 0.0000 0.0000 14.3600 0.0000 0.0000 26.3056 31.7064 -105.8709 31.0754 0.0000 0.0000 9.6989 0.0000 0.0000 30.3339 20.6187 -119.1052 24.3029 0.0000 0.0000 9.8236 0.0000 0.0000 41.8744 8.0337 -114.4273 32.1535 0.0000 0.0000 6.6005 0.0000 0.0000 0.0000 0.0000 0.0000 85.1719 -5.5086 5.9926 -0.9751 6.8699 7.1647 14.6115 34.6226 134.7777 -66.6571 -14.3223 9.7005 2.4967 0.0000 0.0000 5.8192 0.0000 0.0000 -12.9141 3.3334 13.0707 7.6280 0.0000 0.0000 1.7029 0.0000 0.0000 -16.6169 1.4117 14.4161 10.8654 0.0000 0.0000 5.1600 0.0000 0.0000 -0.7764 -2.0440 14.9628 19.4491 0.0000 0.0000 10.0610 0.0000 0.0000 -3.9733 -4.2113 14.5501 16.3137 0.0000 0.0000 11.5331 0.0000 0.0000 0.0000 0.0000 0.0000 0.0000 0.0000 0.0000 0.0000 0.0000 0.0000 0.0000 0.0000 0.0000 0.0000 0.0000 0.0000 0.0000 0.0000 0.0000
0.0000 95.0000 0.0000 0.0000 0.0000 0.0000 0.0000 0.0000 0.0000 0.0000 0.0000 0.0000 0.0000 0.0000 0.0000 0.0000 0.0000 0.0000 0.0000 0.0000 0.0000 0.0000 0.0000 0.0000 -76.2251 -1.0367 -1.3215 -11.7918 -7.8083 12.0619 13.4701 -44.2225 -28.3010 50.8956 -27.4671 -81.7830 49.5359 0.0000 0.0000 9.0623 0.0000 0.0000 12.0371 33.6515 -95.5566 34.4021 0.0000 0.0000 14.3600 0.0000 0.0000 26.3056 31.7064 -105.8709 31.0754 0.0000 0.0000 9.6989 0.0000 0.0000 30.3339 20.6187 -119.1052 24.3029 0.0000 0.0000 9.8236 0.0000 0.0000 41.8744 8.0337 -114.4273 32.1535 0.0000 0.0000 6.6005 0.0000 0.0000 0.0000 0.0000 0.0000 85.1008 -5.6236 6.1253 -0.9848 6.7800 7.0721 14.5310 34.6093 134.7034 -66.6571 -14.3223 9.7005 2.4967 0.0000 0.0000 5.8192 0.0000 0.0000 -12.9141 3.3334 13.0707 7.6280 0.0000 0.0000 1.7029 0.0000 0.0000 -16.6169 1.4117 14.4161 10.8654 0.0000 0.0000 5.1600 0.0000 0.0000 -0.7764 -2.0440 14.9628 19.4491 0.0000 0.0000 10.0610 0.0000 0.0000 -3.9733 -4.2113 14.5501 16.3137 0.0000 0.0000 11.5331 0.0000 0.0000 0.0000 0.0000 0.0000 0.0000 0.0000 0.0000 0.0000 0.0000 0.0000 0.0000 0.0000 0.0000 0.0000 0.0000 0.0000 0.0000 0.0000 0.0000
0.0000 95.0000 0.0000 0.0000 0.0000 0.0000 0.0000 0.0000 0.0000 0.0000 0.0000 0.0000 0.0000 0.0000 0.0000 0.0000 0.0000 0.0000 0.0000 0.0000 0.0000 0.0000 0.0000 0.0000 -76.3916 -1.0872 -1.3818 -11.8003 -7.5178 11.5522 14.0779 -44.5275 -28.2660 50.8956 -27.4671 -81.7830 49.5359 0.0000 0.0000 9.0623 0.0000 0.0000 12.0371 33.6515 -95.5566 34.4021 0.0000 0.0000 14.3600 0.0000 0.0000 26.3056 31.7064 -105.8709 31.0754 0.0000 0.0000 9.6989 0.0000 0.0000 30.3339 20.6187 -119.1052 24.3029 0.0000 0.0000 9.8236 0.0000 0.0000 41.8744 8.0337 -114.4273 32.1535 0.0000 0.0000 6.6005 0.0000 0.0000 0.0000 0.0000 0.0000 85.2344 -5.5438 6.0243 -0.7023 6.8981 7.2477 14.8514 34.8869 134.7857 -66.6571 -14.3223 9.7005 2.4967 0.0000 0.0000 5.8192 0.0000 0.0000 -12.9141 3.3334 13.0707 7.6280 0.0000 0.0000 1.7029 0.0000 0.0000 -16.6169 1.4117 14.4161 10.8654 0.0000 0.0000 5.1600 0.0000 0.0000 -0.7764 -2.0440 14.9628 19.4491 0.0000 0.0000 10.0610 0.0000 0.0000 -3.9733 -4.2113 14.5501 16.3137 0.0000 0.0000 11.5331 0.0000 0.0000 0.0000 0.0000 0.0000 0.0000 0.0000 0.0000 0.0000 0.0000 0.0000 0.0000 0.0000 0.0000 0.0000 0.0000 0.0000 0.0000 0.0000 0.0000
